<svg width="20" height="20" viewBox="0 0 20 20" fill="none" xmlns="http://www.w3.org/2000/svg">
<g clip-path="url(#clip0_3295_6375)">
<path opacity="0.01" d="M0 0H20V20H0V0Z" fill="#202425"/>
<path d="M14.5287 2C14.617 2.00002 14.7016 2.03502 14.7641 2.09733L19.7787 7.112C19.8386 7.17199 19.8734 7.25252 19.876 7.33723C19.8786 7.42194 19.8488 7.50445 19.7927 7.568L10.2501 18.3833C10.2188 18.4188 10.1803 18.4472 10.1372 18.4667C10.0941 18.4861 10.0474 18.4962 10.0001 18.4962C9.95279 18.4962 9.90603 18.4861 9.86293 18.4667C9.81983 18.4472 9.78136 18.4188 9.75008 18.3833L0.207411 7.568C0.151341 7.50445 0.12158 7.42194 0.124181 7.33723C0.126781 7.25252 0.161548 7.17199 0.221411 7.112L5.23608 2.09733C5.29855 2.03502 5.38318 2.00002 5.47141 2H14.5287Z" fill="#FCB000"/>
<path d="M9.74949 7.04667L5.43016 2.11067C5.4217 2.10104 5.4162 2.08918 5.41431 2.07651C5.41241 2.06384 5.41421 2.05089 5.41949 2.03922C5.42476 2.02754 5.43329 2.01763 5.44405 2.01068C5.45481 2.00372 5.46734 2.00002 5.48016 2H14.5202C14.533 2.00002 14.5455 2.00372 14.5563 2.01068C14.567 2.01763 14.5756 2.02754 14.5808 2.03922C14.5861 2.05089 14.5879 2.06384 14.586 2.07651C14.5841 2.08918 14.5786 2.10104 14.5702 2.11067L10.2508 7.04667C10.2195 7.08236 10.181 7.11096 10.1378 7.13055C10.0945 7.15014 10.0476 7.16028 10.0002 7.16028C9.95269 7.16028 9.90578 7.15014 9.86255 7.13055C9.81932 7.11096 9.78078 7.08236 9.74949 7.04667Z" fill="#FFDE00"/>
<path d="M4.89465 7.498C5.02776 7.38187 5.20151 7.32331 5.37775 7.33519C5.554 7.34706 5.71833 7.4284 5.83465 7.56134L9.99998 12.3213L14.1647 7.56134C14.2813 7.42925 14.4455 7.34872 14.6213 7.33734C14.7972 7.32596 14.9704 7.38466 15.103 7.50061C15.2357 7.61655 15.3171 7.78032 15.3294 7.9561C15.3417 8.13188 15.2839 8.30538 15.1687 8.43867L10.502 13.772C10.4394 13.8436 10.3622 13.901 10.2757 13.9403C10.1891 13.9796 10.0951 14 9.99998 14C9.90489 14 9.8109 13.9796 9.72431 13.9403C9.63773 13.901 9.56056 13.8436 9.49798 13.772L4.83132 8.43867C4.71519 8.30557 4.65663 8.13181 4.6685 7.95557C4.68038 7.77932 4.76171 7.61499 4.89465 7.49867V7.498Z" fill="white"/>
</g>
<defs>
<clipPath id="clip0_3295_6375">
<rect width="20" height="20" fill="white"/>
</clipPath>
</defs>
</svg>
