<svg width="16" height="16" viewBox="0 0 16 16" fill="none" xmlns="http://www.w3.org/2000/svg">
<g clip-path="url(#clip0_2771_5822)">
<path d="M0.941406 5.64703L12.5791 12.2974C12.6691 12.3489 12.7395 12.4286 12.7795 12.5243C12.8195 12.62 12.8268 12.7262 12.8003 12.8264C12.7737 12.9266 12.7148 13.0153 12.6327 13.0786C12.5505 13.1419 12.4498 13.1763 12.3461 13.1764H2.71364C2.4842 13.1765 2.26265 13.0927 2.09063 12.9409C1.91861 12.7891 1.80797 12.5796 1.77952 12.352L0.941406 5.64703Z" fill="#E0620D"/>
<path d="M15.0586 5.64703L14.2205 12.352C14.1921 12.5796 14.0814 12.7891 13.9094 12.9409C13.7374 13.0927 13.5158 13.1765 13.2864 13.1764H3.65439C3.55062 13.1765 3.44974 13.1422 3.36746 13.079C3.28517 13.0158 3.2261 12.9271 3.19941 12.8269C3.17273 12.7266 3.17995 12.6203 3.21993 12.5245C3.25992 12.4288 3.33043 12.3489 3.4205 12.2974L15.0586 5.64703Z" fill="#E0620D"/>
<path d="M8.00006 3.76471L13.1728 11.7224C13.2651 11.8644 13.3174 12.0288 13.3241 12.1981C13.3308 12.3674 13.2917 12.5353 13.2109 12.6842C13.13 12.8331 13.0105 12.9575 12.8649 13.0441C12.7193 13.1308 12.553 13.1765 12.3836 13.1765H3.61653C3.4471 13.1765 3.28081 13.1308 3.1352 13.0441C2.9896 12.9575 2.87008 12.8331 2.78927 12.6842C2.70845 12.5353 2.66933 12.3674 2.67603 12.1981C2.68273 12.0288 2.73501 11.8644 2.82735 11.7224L8.00006 3.76471Z" fill="#EFB336"/>
<path d="M8 3.76471L13.1727 11.7224C13.265 11.8644 13.3173 12.0288 13.324 12.1981C13.3307 12.3674 13.2916 12.5353 13.2108 12.6842C13.13 12.8331 13.0105 12.9575 12.8649 13.0441C12.7193 13.1308 12.553 13.1765 12.3835 13.1765H8V3.76471Z" fill="#EA9518"/>
<path d="M7.05859 3.29414C7.05859 3.54376 7.15775 3.78315 7.33426 3.95966C7.51076 4.13616 7.75015 4.23532 7.99977 4.23532C8.24939 4.23532 8.48878 4.13616 8.66528 3.95966C8.84179 3.78315 8.94095 3.54376 8.94095 3.29414C8.94095 3.17055 8.9166 3.04816 8.8693 2.93397C8.82201 2.81978 8.75268 2.71603 8.66528 2.62863C8.57789 2.54123 8.47413 2.47191 8.35994 2.42461C8.24575 2.37731 8.12337 2.35297 7.99977 2.35297C7.87617 2.35297 7.75379 2.37731 7.6396 2.42461C7.52541 2.47191 7.42165 2.54123 7.33426 2.62863C7.24686 2.71603 7.17754 2.81978 7.13024 2.93397C7.08294 3.04816 7.05859 3.17055 7.05859 3.29414Z" fill="#EFB336"/>
<path d="M14.1177 5.17647C14.1177 5.30006 14.142 5.42245 14.1893 5.53664C14.2366 5.65083 14.3059 5.75458 14.3933 5.84198C14.4807 5.92938 14.5845 5.9987 14.6987 6.046C14.8129 6.0933 14.9353 6.11764 15.0589 6.11764C15.1824 6.11764 15.3048 6.0933 15.419 6.046C15.5332 5.9987 15.637 5.92938 15.7244 5.84198C15.8118 5.75458 15.8811 5.65083 15.9284 5.53664C15.9757 5.42245 16 5.30006 16 5.17647C16 4.92685 15.9009 4.68746 15.7244 4.51095C15.5479 4.33445 15.3085 4.23529 15.0589 4.23529C14.8092 4.23529 14.5698 4.33445 14.3933 4.51095C14.2168 4.68746 14.1177 4.92685 14.1177 5.17647Z" fill="#EFB336"/>
<path d="M0 5.17647C0 5.42608 0.0991594 5.66547 0.275664 5.84198C0.452169 6.01848 0.691561 6.11764 0.941176 6.11764C1.19079 6.11764 1.43018 6.01848 1.60669 5.84198C1.78319 5.66547 1.88235 5.42608 1.88235 5.17647C1.88235 4.92685 1.78319 4.68746 1.60669 4.51095C1.43018 4.33445 1.19079 4.23529 0.941176 4.23529C0.691561 4.23529 0.452169 4.33445 0.275664 4.51095C0.0991594 4.68746 0 4.92685 0 5.17647Z" fill="#EFB336"/>
</g>
<defs>
<clipPath id="clip0_2771_5822">
<rect width="16" height="16" fill="white"/>
</clipPath>
</defs>
</svg>
